<?xml version="1.0" encoding="iso-8859-1"?>
<!-- Uploaded to: SVG Repo, www.svgrepo.com, Generator: SVG Repo Mixer Tools -->
<!DOCTYPE svg PUBLIC "-//W3C//DTD SVG 1.1//EN" "http://www.w3.org/Graphics/SVG/1.1/DTD/svg11.dtd">
<svg fill="#fff" height="800px" width="800px" version="1.1" id="Capa_1" xmlns="http://www.w3.org/2000/svg" xmlns:xlink="http://www.w3.org/1999/xlink" 
	 viewBox="0 0 60.008 60.008" xml:space="preserve">
<g>
	<circle cx="21.004" cy="13.995" r="1"/>
	<circle cx="21.004" cy="17.995" r="1"/>
	<circle cx="24.004" cy="15.995" r="1"/>
	<circle cx="14.004" cy="30.995" r="1"/>
	<circle cx="14.004" cy="34.995" r="1"/>
	<circle cx="17.004" cy="32.995" r="1"/>
	<circle cx="39.004" cy="18.995" r="1"/>
	<circle cx="39.004" cy="22.995" r="1"/>
	<circle cx="42.004" cy="20.995" r="1"/>
	<circle cx="25.284" cy="43.567" r="1"/>
	<circle cx="26.893" cy="47.228" r="1"/>
	<circle cx="28.835" cy="44.19" r="1"/>
	<circle cx="43.094" cy="36.043" r="1"/>
	<circle cx="39.788" cy="38.294" r="1"/>
	<circle cx="43.129" cy="39.648" r="1"/>
	<circle cx="27.767" cy="26.77" r="1"/>
	<circle cx="26.37" cy="30.518" r="1"/>
	<circle cx="29.879" cy="29.692" r="1"/>
	<path d="M30.004,4.995c-13.785,0-25,11.215-25,25s11.215,25,25,25s25-11.215,25-25S43.789,4.995,30.004,4.995z M40.004,14.995
		c3.309,0,6,2.691,6,6s-2.691,6-6,6s-6-2.691-6-6S36.695,14.995,40.004,14.995z M37.777,32.814c0.1,0.543-0.259,1.064-0.803,1.164
		c-0.061,0.012-0.122,0.017-0.182,0.017c-0.473,0-0.894-0.337-0.982-0.819c-0.242-1.314,0.042-2.644,0.8-3.742
		c0.758-1.1,1.899-1.838,3.213-2.079c0.546-0.106,1.065,0.26,1.164,0.803c0.1,0.543-0.26,1.064-0.803,1.164
		c-0.789,0.146-1.474,0.588-1.928,1.247C37.802,31.227,37.632,32.025,37.777,32.814z M34.877,36.433
		c-0.652,1.166-1.719,2.009-3.003,2.372c-0.452,0.128-0.911,0.191-1.368,0.191c-0.843,0-1.677-0.216-2.434-0.639
		c-0.482-0.27-0.655-0.879-0.385-1.361c0.27-0.481,0.878-0.653,1.361-0.385c0.701,0.393,1.512,0.487,2.281,0.27
		c0.771-0.219,1.411-0.725,1.802-1.425c0.269-0.481,0.877-0.654,1.361-0.385C34.974,35.342,35.146,35.951,34.877,36.433z
		 M30.004,15.995c1.654,0,3-1.346,3-3c0-0.553,0.448-1,1-1s1,0.447,1,1c0,2.757-2.243,5-5,5c-0.552,0-1-0.447-1-1
		S29.452,15.995,30.004,15.995z M30.102,23.372c1.501,0.56,2.695,1.671,3.361,3.129c0.666,1.457,0.725,3.087,0.165,4.589
		c-0.871,2.336-3.13,3.905-5.623,3.905c-0.715,0-1.42-0.128-2.096-0.38c-1.501-0.56-2.695-1.671-3.361-3.129
		c-0.666-1.457-0.725-3.087-0.165-4.589c0.871-2.336,3.13-3.905,5.623-3.905C28.721,22.992,29.426,23.12,30.102,23.372z
		 M22.004,9.995c3.309,0,6,2.691,6,6s-2.691,6-6,6s-6-2.691-6-6S18.695,9.995,22.004,9.995z M13.628,21.047
		c0.525-0.176,1.09,0.108,1.265,0.632c0.522,1.569,2.227,2.419,3.795,1.897c0.525-0.171,1.09,0.109,1.265,0.634
		c0.174,0.523-0.109,1.09-0.633,1.265c-0.522,0.174-1.053,0.256-1.576,0.256c-2.095,0-4.051-1.326-4.749-3.419
		C12.821,21.787,13.104,21.221,13.628,21.047z M9.004,32.995c0-3.309,2.691-6,6-6s6,2.691,6,6s-2.691,6-6,6
		S9.004,36.304,9.004,32.995z M19.623,41.37c-0.396,0-0.77-0.235-0.927-0.625c-0.208-0.512,0.04-1.095,0.551-1.302
		c1.533-0.621,2.275-2.374,1.655-3.907c-0.208-0.512,0.04-1.095,0.551-1.302c0.512-0.208,1.095,0.039,1.302,0.552
		c1.035,2.555-0.202,5.476-2.757,6.511C19.875,41.347,19.748,41.37,19.623,41.37z M29.418,50.487
		c-0.768,0.338-1.579,0.509-2.412,0.509c-2.38,0-4.537-1.407-5.495-3.586c-1.331-3.028,0.049-6.576,3.078-7.907
		c0.768-0.338,1.579-0.509,2.412-0.509c2.38,0,4.537,1.407,5.495,3.586C33.828,45.608,32.447,49.156,29.418,50.487z M40.32,46.736
		c-0.523,0.175-1.055,0.258-1.578,0.258c-2.094,0-4.049-1.326-4.747-3.419c-0.175-0.524,0.108-1.091,0.632-1.265
		c0.526-0.177,1.091,0.108,1.265,0.632c0.253,0.761,0.788,1.378,1.504,1.735c0.716,0.358,1.529,0.414,2.291,0.162
		c0.525-0.177,1.09,0.108,1.265,0.632C41.127,45.996,40.844,46.562,40.32,46.736z M47.898,39.114
		c-0.299,1.575-1.193,2.938-2.518,3.841c-1,0.681-2.166,1.041-3.372,1.041c-1.99,0-3.846-0.981-4.964-2.625
		c-0.902-1.324-1.234-2.921-0.935-4.495c0.299-1.575,1.193-2.938,2.518-3.841c1-0.681,2.166-1.041,3.372-1.041
		c1.99,0,3.846,0.981,4.964,2.625C47.865,35.943,48.197,37.54,47.898,39.114z M49.131,27.457c0.269-0.481,0.877-0.654,1.361-0.385
		c0.482,0.27,0.655,0.879,0.385,1.361c-0.652,1.166-1.719,2.009-3.003,2.372c-0.452,0.128-0.911,0.191-1.368,0.191
		c-0.843,0-1.677-0.216-2.434-0.639c-0.482-0.27-0.655-0.879-0.385-1.361c0.27-0.481,0.877-0.655,1.361-0.385
		c0.701,0.392,1.511,0.487,2.281,0.27C48.1,28.663,48.74,28.157,49.131,27.457z"/>
	<path d="M59.543,28.33c0.917-2.309,0.456-4.897-1.205-6.755c-0.774-0.866-1.184-1.979-1.155-3.132
		c0.063-2.478-1.265-4.752-3.465-5.936c-1.029-0.554-1.802-1.462-2.175-2.558c-0.798-2.346-2.83-4.032-5.304-4.4
		c-1.162-0.173-2.205-0.767-2.937-1.673c-1.542-1.91-4.077-2.824-6.499-2.339c-1.144,0.228-2.353,0.017-3.344-0.583
		c-2.083-1.256-4.83-1.257-6.914,0.001c-0.729,0.44-1.566,0.673-2.422,0.673h0c-0.309,0-0.619-0.03-0.921-0.091
		c-2.424-0.485-4.957,0.429-6.499,2.339c-0.731,0.906-1.774,1.5-2.937,1.673c-2.473,0.368-4.505,2.055-5.303,4.4
		c-0.373,1.096-1.146,2.004-2.175,2.558c-2.2,1.184-3.528,3.458-3.465,5.936c0.029,1.153-0.381,2.266-1.155,3.132
		c-1.66,1.857-2.122,4.446-1.205,6.755c0.426,1.074,0.426,2.256,0,3.33c-0.917,2.309-0.456,4.897,1.205,6.755
		c0.774,0.866,1.184,1.979,1.155,3.132c-0.063,2.478,1.265,4.752,3.465,5.936c1.029,0.554,1.802,1.462,2.175,2.558
		c0.798,2.346,2.83,4.032,5.304,4.4c1.162,0.173,2.205,0.767,2.937,1.673c1.542,1.909,4.074,2.817,6.499,2.339
		c1.143-0.229,2.352-0.018,3.344,0.583c1.042,0.628,2.237,0.96,3.457,0.96s2.415-0.332,3.457-0.961c0.991-0.6,2.2-0.812,3.344-0.582
		c2.422,0.479,4.957-0.43,6.499-2.339c0.731-0.906,1.774-1.5,2.937-1.673c2.473-0.368,4.505-2.055,5.303-4.4
		c0.373-1.096,1.146-2.004,2.175-2.558c2.2-1.184,3.528-3.458,3.465-5.936c-0.029-1.153,0.381-2.266,1.155-3.132
		c1.66-1.857,2.122-4.446,1.205-6.755C59.117,30.586,59.117,29.404,59.543,28.33z M57.685,32.398c0.635,1.6,0.314,3.396-0.837,4.685
		c-1.114,1.246-1.705,2.85-1.663,4.515c0.043,1.719-0.881,3.299-2.414,4.123c-1.476,0.794-2.584,2.1-3.121,3.675
		c-0.556,1.634-1.975,2.809-3.704,3.066c-1.66,0.247-3.151,1.098-4.198,2.396c-1.078,1.333-2.851,1.971-4.551,1.634
		c-1.628-0.323-3.354-0.024-4.769,0.831c-1.459,0.881-3.388,0.88-4.846,0.001c-1.041-0.63-2.236-0.962-3.457-0.962
		c-0.44,0-0.881,0.044-1.313,0.13c-1.701,0.337-3.474-0.301-4.551-1.634c-1.048-1.298-2.539-2.148-4.198-2.396
		c-1.729-0.258-3.149-1.433-3.705-3.066c-0.537-1.575-1.645-2.881-3.121-3.675c-1.532-0.824-2.457-2.404-2.414-4.123
		c0.042-1.665-0.549-3.269-1.663-4.515c-1.152-1.289-1.473-3.085-0.837-4.685c0.616-1.55,0.616-3.257,0-4.807
		c-0.635-1.6-0.314-3.396,0.837-4.685c1.114-1.246,1.705-2.85,1.663-4.515c-0.043-1.719,0.881-3.299,2.414-4.123
		c1.476-0.794,2.584-2.1,3.121-3.675c0.556-1.634,1.975-2.809,3.704-3.066c1.66-0.247,3.151-1.098,4.198-2.396
		c1.078-1.334,2.85-1.975,4.551-1.634c0.431,0.086,0.873,0.13,1.313,0.13h0c1.22,0,2.416-0.332,3.456-0.961
		c1.459-0.881,3.388-0.88,4.846-0.001c1.416,0.856,3.141,1.156,4.77,0.832c1.697-0.342,3.473,0.3,4.551,1.634
		c1.048,1.298,2.539,2.148,4.198,2.396c1.729,0.258,3.149,1.433,3.705,3.066c0.537,1.575,1.645,2.881,3.121,3.675
		c1.532,0.824,2.457,2.404,2.414,4.123c-0.042,1.665,0.549,3.269,1.663,4.515c1.152,1.289,1.473,3.085,0.837,4.685
		C57.069,29.141,57.069,30.849,57.685,32.398z"/>
</g>
</svg>
